<?xml version="1.0" encoding="UTF-8"?>
<svg width="279px" height="62px" viewBox="0 0 279 62" version="1.1" xmlns="http://www.w3.org/2000/svg" xmlns:xlink="http://www.w3.org/1999/xlink">
    <!-- Generator: Sketch 52.6 (67491) - http://www.bohemiancoding.com/sketch -->
    <title>Artboard</title>
    <desc>Created with Sketch.</desc>
    <g id="Artboard" stroke="none" stroke-width="1" fill="none" fill-rule="evenodd">
        <g id="Group" transform="translate(6.000000, 9.000000)">
            <g id="blog_btn_download-ol">
                <g id="a-link" fill="#ABD155">
                    <path d="M19.1105769,0 L245.889423,0 C256.443558,0 265,10.074 265,22.5 C265,34.926 256.443558,45 245.889423,45 L19.1105769,45 C8.55644231,45 0,34.926 0,22.5 C0,10.074 8.55644231,0 19.1105769,0 Z" id="a"></path>
                </g>
                <path d="M19.5097087,1.5 C9.56320388,1.5 1.5,10.902 1.5,22.5 C1.5,34.098 9.56320388,43.5 19.5097087,43.5 L248.490291,43.5 C258.436796,43.5 266.5,34.098 266.5,22.5 C266.5,10.902 258.436796,1.5 248.490291,1.5 L19.5097087,1.5 Z" id="Path" stroke="#ABD155" stroke-width="3"></path>
                <path d="M48.94,18.94 L43.94,23.94 C43.3892823,24.5310195 43.4055322,25.4520194 43.9767564,26.0232436 C44.5479806,26.5944678 45.4689805,26.6107177 46.06,26.06 L51.06,21.06 C51.6107177,20.4689805 51.5944678,19.5479806 51.0232436,18.9767564 C50.4520194,18.4055322 49.5310195,18.3892823 48.94,18.94 Z" id="Path" fill="#4F660A"></path>
                <path d="M43.5,11 L43.5,23 C43.5,23.8284271 44.1715729,24.5 45,24.5 C45.8284271,24.5 46.5,23.8284271 46.5,23 L46.5,11 C46.5,10.1715729 45.8284271,9.5 45,9.5 C44.1715729,9.5 43.5,10.1715729 43.5,11 Z" id="Path" fill="#4F660A"></path>
                <path d="M38.94,21.06 L43.94,26.06 C44.5310195,26.6107177 45.4520194,26.5944678 46.0232436,26.0232436 C46.5944678,25.4520194 46.6107177,24.5310195 46.06,23.94 L41.06,18.94 C40.4689805,18.3892823 39.5479806,18.4055322 38.9767564,18.9767564 C38.4055322,19.5479806 38.3892823,20.4689805 38.94,21.06 Z M39,35.5 L51,35.5 C51.8284271,35.5 52.5,34.8284271 52.5,34 C52.5,33.1715729 51.8284271,32.5 51,32.5 L39,32.5 C38.1715729,32.5 37.5,33.1715729 37.5,34 C37.5,34.8284271 38.1715729,35.5 39,35.5 Z" id="Shape" fill="#4F660A" fill-rule="nonzero"></path>
            </g>
            <text id="Download-Java-11" font-family="Asap-Medium, Asap" font-size="20" font-weight="400" fill="#24253A">
                <tspan x="75" y="30">Download Java 11</tspan>
            </text>
        </g>
    </g>
</svg>