<svg width="268" height="45" xmlns="http://www.w3.org/2000/svg" xmlns:xlink="http://www.w3.org/1999/xlink"><defs><path d="M71.58 16c3.44 0 6.18 1.82 6.18 7 0 5.2-2.74 7-6.18 7h-4.04c-.42 0-.6-.18-.6-.6V16.6c0-.42.18-.6.6-.6h4.04zm-.14 1.52H68.7v10.96h2.74c2.5 0 4.5-1.48 4.5-5.48 0-3.98-2-5.48-4.5-5.48zm13.2 1.9c2.94 0 4.54 1.92 4.54 5.4 0 3.46-1.56 5.3-4.54 5.3-3.02 0-4.64-1.86-4.64-5.3 0-3.46 1.66-5.4 4.64-5.4zm-.06 1.44c-1.94 0-2.82 1.24-2.82 3.92 0 2.66.86 3.9 2.82 3.9s2.86-1.24 2.86-3.9-.9-3.92-2.86-3.92zm19.2-1.36c.54 0 .8.12.8.34 0 .08-.02.16-.06.28l-2.68 9.6c-.06.24-.4.32-.8.32h-.6c-.4 0-.72-.08-.78-.32l-1.6-6.34c-.12-.46-.22-1.04-.3-1.56-.08.52-.18 1.1-.3 1.54l-1.64 6.36c-.06.24-.4.32-.8.32h-.6c-.4 0-.74-.08-.8-.32l-2.64-9.48c-.04-.12-.1-.32-.1-.4 0-.2.26-.34.92-.34.4 0 .74.08.8.32l1.68 6.4c.12.48.34 1.54.5 2.28.12-.7.32-1.66.5-2.3l1.66-6.36c.06-.26.38-.34.78-.34h.14c.4 0 .7.08.78.34l1.68 6.36c.3 1.14.36 1.56.5 2.28.14-.72.3-1.62.46-2.24l1.68-6.42c.06-.24.42-.32.82-.32zm7.82-.08c2.04 0 3.26 1.22 3.26 3.24v6.94c0 .28-.24.44-.8.44h-.08c-.56 0-.8-.16-.8-.44v-6.78c0-1.22-.74-1.94-2.04-1.94-.9 0-1.86.54-2.52 1.4v7.32c0 .28-.24.44-.8.44h-.08c-.56 0-.8-.16-.8-.44v-7.02c0-1.64-.24-2.42-.24-2.52 0-.38.82-.46 1.08-.46.48 0 .58.8.7 1.32.84-.94 2-1.5 3.12-1.5zm7.28-4.46c.56 0 .8.16.8.44v11.8c0 1.2.5 1.48 1.08 1.48.58 0 .68-.1.86-.1.28 0 .42.78.42.94 0 .54-.92.6-1.46.6-1 0-2.58-.44-2.58-2.76V15.4c0-.28.24-.44.8-.44h.08zm9.16 4.46c2.94 0 4.54 1.92 4.54 5.4 0 3.46-1.56 5.3-4.54 5.3-3.02 0-4.64-1.86-4.64-5.3 0-3.46 1.66-5.4 4.64-5.4zm-.06 1.44c-1.94 0-2.82 1.24-2.82 3.92 0 2.66.86 3.9 2.82 3.9s2.86-1.24 2.86-3.9-.9-3.92-2.86-3.92zm11.06-1.44c2.48 0 3.94 1.16 3.94 3.14v4.48c0 1.64.24 2.42.24 2.52 0 .38-.82.46-1.08.46-.48 0-.58-.84-.7-1.4-.76.84-1.86 1.5-3.36 1.5-1.94 0-3.42-.94-3.42-3 0-3.38 3.58-3.6 6.64-3.64v-.94c0-.9-.54-1.68-2.2-1.68-1.82 0-2.92.84-3.12.84-.28 0-.7-.78-.7-1 0-.52 1.76-1.28 3.76-1.28zm2.26 5.5c-2.08.02-4.84.02-4.84 2.1 0 1.06.58 1.64 1.7 1.64 1.46 0 2.34-.66 3.14-1.38v-2.36zm12.12-9.96c.56 0 .8.16.8.44v11.64c0 1.64.24 2.42.24 2.52 0 .38-.82.46-1.08.46-.48 0-.58-.84-.7-1.4-.98 1.02-2.04 1.5-3.18 1.5-2.4 0-3.88-2.24-3.88-5.34 0-3.48 1.68-5.36 4.06-5.36 1.24 0 2.08.42 2.86 1.02V15.4c0-.28.24-.44.8-.44h.08zm-3.34 5.94c-1.8.04-2.7 1.34-2.7 3.72 0 2.58.88 4.04 2.46 4.04.88 0 1.88-.48 2.7-1.38V21.8c-.72-.6-1.56-.9-2.46-.9zm17.9-5.02c4.02 0 6.18 2.4 6.18 7.08s-2.16 7.16-6.18 7.16c-4 0-6.16-2.48-6.16-7.16s2.16-7.08 6.16-7.08zm0 1.52c-2.82 0-4.34 1.88-4.34 5.56 0 3.68 1.52 5.64 4.34 5.64s4.36-1.96 4.36-5.64c0-3.68-1.54-5.56-4.36-5.56zm13.76 2.02c2.48 0 3.88 2.28 3.88 5.36 0 3.46-1.68 5.34-4.06 5.34-1.24 0-2.08-.42-2.86-1.02v4.62c0 .28-.24.44-.8.44h-.08c-.56 0-.8-.16-.8-.44V22.58c0-1.64-.24-2.42-.24-2.52 0-.38.82-.46 1.08-.46.48 0 .58.8.7 1.32.98-1.02 2.04-1.5 3.18-1.5zm-.34 1.46c-.88 0-1.88.48-2.7 1.38v5.48c.72.6 1.56.9 2.48.9 1.78-.04 2.68-1.34 2.68-3.72 0-2.58-.88-4.04-2.46-4.04zm11.12-1.46c2.74 0 4.12 1.82 4.12 5.22 0 .24-.42.82-.66.82h-6.32c.16 2.22 1.1 3.22 3.08 3.22 1.74 0 2.72-.84 2.92-.84.28 0 .7.78.7 1 0 .48-1.58 1.28-3.6 1.28-3.32 0-4.9-1.7-4.9-5.28 0-3.54 1.6-5.42 4.66-5.42zm-.06 1.44c-1.74 0-2.66 1.06-2.8 3.16h5.2c0-2.1-.8-3.16-2.4-3.16zm11.46-1.44c2.04 0 3.26 1.22 3.26 3.24v6.94c0 .28-.24.44-.8.44h-.08c-.56 0-.8-.16-.8-.44v-6.78c0-1.22-.74-1.94-2.04-1.94-.9 0-1.86.54-2.52 1.4v7.32c0 .28-.24.44-.8.44h-.08c-.56 0-.8-.16-.8-.44v-7.02c0-1.64-.24-2.42-.24-2.52 0-.38.82-.46 1.08-.46.48 0 .58.8.7 1.32.84-.94 2-1.5 3.12-1.5zm10.34-3.46c.56 0 .8.16.8.44v9.5c0 2.52-1.16 4.22-4.24 4.22-.76 0-2.02-.1-2.02-.64 0-.08.12-1.1.44-1.1.16 0 .62.18 1.26.18 1.98 0 2.8-.74 2.8-2.46v-9.7c0-.28.24-.44.8-.44h.16zm7.88-.06c2.84 0 4.26 1.86 4.26 5.04 0 5.78-5.16 9.1-6.5 9.1-.42 0-.66-.82-.66-1.06 0-.06.02-.16.16-.22 2.72-1.12 4.3-3.08 4.94-5.32-.62.36-1.48.66-2.7.66-2.12 0-3.82-1.58-3.82-4.04 0-2.54 1.9-4.16 4.32-4.16zm-.1 1.44c-1.08 0-2.52.8-2.52 2.64 0 1.96 1.3 2.68 2.62 2.68 1.06 0 1.94-.36 2.5-.68.04-.4.08-.82.08-1.2 0-2.8-1.42-3.44-2.68-3.44z" id="a"/></defs><g fill="none" fill-rule="evenodd"><path d="M19.11 0h226.78C256.443 0 265 10.074 265 22.5S256.444 45 245.89 45H19.11C8.557 45 0 34.926 0 22.5S8.556 0 19.11 0z" fill="#ABD155"/><path d="M19.51 1.5c-9.947 0-18.01 9.402-18.01 21s8.063 21 18.01 21h228.98c9.947 0 18.01-9.402 18.01-21s-8.063-21-18.01-21H19.51z" stroke="#ABD155" stroke-width="3"/><path d="M48.94 18.94l-5 5a1.5 1.5 0 0 0 2.12 2.12l5-5a1.5 1.5 0 0 0-2.12-2.12z" fill="#4F660A"/><path d="M43.5 11v12a1.5 1.5 0 0 0 3 0V11a1.5 1.5 0 0 0-3 0z" fill="#4F660A"/><path d="M38.94 21.06l5 5a1.5 1.5 0 0 0 2.12-2.12l-5-5a1.5 1.5 0 0 0-2.12 2.12zM39 35.5h12a1.5 1.5 0 0 0 0-3H39a1.5 1.5 0 0 0 0 3z" fill="#4F660A" fill-rule="nonzero"/><g><use fill="#000" xlink:href="#a"/><use fill="#24253A" xlink:href="#a"/></g></g></svg>