<svg width="369" height="45" viewBox="0 0 369 45" fill="none" xmlns="http://www.w3.org/2000/svg">
<path d="M22.5 2C11.178 2 2 11.178 2 22.5C2 33.822 11.178 43 22.5 43H346.5C357.822 43 367 33.822 367 22.5C367 11.178 357.822 2 346.5 2H22.5ZM22.5 0H346.5C358.926 0 369 10.074 369 22.5C369 34.926 358.926 45 346.5 45H22.5C10.074 45 0 34.926 0 22.5C0 10.074 10.074 0 22.5 0Z" fill="#AECA63"/>
<path d="M71.1593 29.12C70.306 29.12 69.546 29.02 68.8793 28.82C68.2126 28.62 67.7193 28.4 67.3993 28.16C67.146 27.9733 67.0193 27.8067 67.0193 27.66C67.0193 27.5533 67.0593 27.4133 67.1393 27.24C67.2326 27.0667 67.3326 26.9133 67.4393 26.78C67.5593 26.6467 67.6526 26.58 67.7193 26.58C67.7593 26.58 67.8126 26.6 67.8793 26.64C67.9593 26.6667 68.046 26.7133 68.1393 26.78C68.406 26.9267 68.7926 27.1 69.2993 27.3C69.806 27.5 70.426 27.6 71.1593 27.6C71.666 27.6 72.1126 27.5067 72.4993 27.32C72.8993 27.12 73.2126 26.84 73.4393 26.48C73.666 26.12 73.7793 25.7067 73.7793 25.24C73.7793 24.7067 73.6326 24.28 73.3393 23.96C73.0593 23.6267 72.686 23.3533 72.2193 23.14C71.766 22.9267 71.2793 22.72 70.7593 22.52C70.3326 22.36 69.9126 22.1867 69.4993 22C69.086 21.8 68.7126 21.56 68.3793 21.28C68.046 21 67.7793 20.6467 67.5793 20.22C67.3793 19.78 67.2793 19.2333 67.2793 18.58C67.2793 17.86 67.4593 17.22 67.8193 16.66C68.1926 16.1 68.7126 15.6667 69.3793 15.36C70.046 15.04 70.826 14.88 71.7193 14.88C71.9993 14.88 72.3126 14.9067 72.6593 14.96C73.0193 15.0133 73.366 15.0933 73.6993 15.2C74.046 15.3067 74.326 15.4333 74.5393 15.58C74.806 15.74 74.9393 15.9133 74.9393 16.1C74.9393 16.1933 74.8993 16.3267 74.8193 16.5C74.7393 16.6733 74.646 16.8267 74.5393 16.96C74.446 17.0933 74.366 17.16 74.2993 17.16C74.246 17.16 74.1726 17.14 74.0793 17.1C73.9993 17.0467 73.8926 16.9867 73.7593 16.92C73.546 16.8133 73.2726 16.7 72.9393 16.58C72.606 16.46 72.186 16.4 71.6793 16.4C71.186 16.4 70.7393 16.4867 70.3393 16.66C69.9526 16.8333 69.646 17.0867 69.4193 17.42C69.206 17.7533 69.0993 18.1667 69.0993 18.66C69.0993 19.14 69.226 19.52 69.4793 19.8C69.7326 20.08 70.066 20.3133 70.4793 20.5C70.8926 20.6733 71.3393 20.8533 71.8193 21.04C72.2593 21.2133 72.6993 21.4067 73.1393 21.62C73.5926 21.82 74.006 22.0733 74.3793 22.38C74.7526 22.6867 75.046 23.0733 75.2593 23.54C75.486 23.9933 75.5993 24.56 75.5993 25.24C75.5993 25.84 75.4926 26.38 75.2793 26.86C75.0793 27.34 74.7793 27.7467 74.3793 28.08C73.9926 28.4133 73.526 28.6733 72.9793 28.86C72.446 29.0333 71.8393 29.12 71.1593 29.12ZM80.9993 29.12C80.746 29.12 80.4726 29.08 80.1793 29C79.886 28.9333 79.606 28.8067 79.3393 28.62C79.0726 28.42 78.8526 28.14 78.6793 27.78C78.506 27.4067 78.4193 26.9333 78.4193 26.36V19.98H77.4193C77.1526 19.98 77.0193 19.78 77.0193 19.38V19.14C77.0193 18.74 77.1526 18.54 77.4193 18.54H78.4193L78.6593 16.44C78.686 16.1467 78.8993 16 79.2993 16H79.4993C79.8993 16 80.0993 16.1467 80.0993 16.44V18.54H81.7793C82.046 18.54 82.1793 18.74 82.1793 19.14V19.38C82.1793 19.78 82.046 19.98 81.7793 19.98H80.0993V26.2C80.0993 26.8 80.206 27.2 80.4193 27.4C80.6326 27.5867 80.886 27.68 81.1793 27.68C81.4726 27.68 81.666 27.6667 81.7593 27.64C81.8526 27.6 81.946 27.58 82.0393 27.58C82.1326 27.58 82.206 27.6467 82.2593 27.78C82.326 27.9133 82.3726 28.06 82.3993 28.22C82.4393 28.3667 82.4593 28.4667 82.4593 28.52C82.4593 28.6933 82.3726 28.8267 82.1993 28.92C82.0393 29 81.846 29.0533 81.6193 29.08C81.3926 29.1067 81.186 29.12 80.9993 29.12ZM87.5152 29.12C86.5419 29.12 85.7286 28.88 85.0752 28.4C84.4219 27.9067 84.0952 27.1467 84.0952 26.12C84.0952 25.28 84.2952 24.62 84.6952 24.14C85.0952 23.6467 85.6219 23.2867 86.2752 23.06C86.9286 22.82 87.6419 22.6667 88.4152 22.6C89.2019 22.5333 89.9752 22.4933 90.7352 22.48V21.54C90.7352 21.0867 90.5752 20.6933 90.2552 20.36C89.9352 20.0267 89.3619 19.86 88.5352 19.86C87.9352 19.86 87.4086 19.9333 86.9552 20.08C86.5152 20.2133 86.1619 20.3533 85.8952 20.5C85.6419 20.6333 85.4819 20.7 85.4152 20.7C85.3219 20.7 85.2219 20.6333 85.1152 20.5C85.0086 20.3667 84.9152 20.22 84.8352 20.06C84.7552 19.8867 84.7152 19.7667 84.7152 19.7C84.7152 19.5267 84.8886 19.34 85.2352 19.14C85.5819 18.94 86.0419 18.7733 86.6152 18.64C87.1886 18.4933 87.8086 18.42 88.4752 18.42C89.3019 18.42 90.0086 18.5467 90.5952 18.8C91.1819 19.04 91.6286 19.3933 91.9352 19.86C92.2552 20.3267 92.4152 20.8933 92.4152 21.56V26.04C92.4152 26.5867 92.4352 27.04 92.4752 27.4C92.5152 27.76 92.5552 28.0333 92.5952 28.22C92.6352 28.4067 92.6552 28.52 92.6552 28.56C92.6552 28.6533 92.6086 28.7333 92.5152 28.8C92.4352 28.8533 92.3352 28.9 92.2152 28.94C92.0952 28.9667 91.9752 28.9867 91.8552 29C91.7352 29.0133 91.6419 29.02 91.5752 29.02C91.4152 29.02 91.2886 28.9467 91.1952 28.8C91.1152 28.64 91.0486 28.4533 90.9952 28.24C90.9552 28.0133 90.9152 27.8067 90.8752 27.62C90.6219 27.9 90.3286 28.1533 89.9952 28.38C89.6619 28.6067 89.2886 28.7867 88.8752 28.92C88.4752 29.0533 88.0219 29.12 87.5152 29.12ZM87.5952 27.66C88.3286 27.66 88.9352 27.52 89.4152 27.24C89.8952 26.96 90.3352 26.64 90.7352 26.28V23.92C90.2152 23.92 89.6752 23.94 89.1152 23.98C88.5552 24.0067 88.0286 24.08 87.5352 24.2C87.0419 24.32 86.6419 24.5267 86.3352 24.82C86.0419 25.1 85.8952 25.5 85.8952 26.02C85.8952 26.5533 86.0352 26.96 86.3152 27.24C86.6086 27.52 87.0352 27.66 87.5952 27.66ZM99.9737 29.12C98.3603 29.12 97.1337 28.7067 96.2937 27.88C95.467 27.04 95.0537 25.6533 95.0537 23.72C95.0537 22.68 95.187 21.82 95.4537 21.14C95.7337 20.4467 96.1003 19.9067 96.5537 19.52C97.0203 19.12 97.5337 18.84 98.0937 18.68C98.6537 18.5067 99.2203 18.42 99.7937 18.42C100.314 18.42 100.8 18.4667 101.254 18.56C101.707 18.64 102.074 18.7533 102.354 18.9C102.647 19.0333 102.794 19.18 102.794 19.34C102.794 19.4467 102.754 19.5867 102.674 19.76C102.607 19.9333 102.527 20.0867 102.434 20.22C102.34 20.3533 102.247 20.42 102.154 20.42C102.14 20.42 102.114 20.4133 102.074 20.4C102.047 20.3867 102 20.3667 101.934 20.34C101.76 20.26 101.487 20.16 101.114 20.04C100.754 19.92 100.3 19.86 99.7537 19.86C98.8737 19.86 98.167 20.1533 97.6337 20.74C97.1137 21.3133 96.8537 22.2933 96.8537 23.68C96.8537 25.08 97.087 26.1 97.5537 26.74C98.0203 27.3667 98.8203 27.68 99.9537 27.68C100.514 27.68 100.987 27.62 101.374 27.5C101.76 27.3667 102.04 27.2533 102.214 27.16C102.28 27.1333 102.327 27.1133 102.354 27.1C102.394 27.0867 102.42 27.08 102.434 27.08C102.527 27.08 102.627 27.1467 102.734 27.28C102.84 27.4133 102.927 27.56 102.994 27.72C103.074 27.88 103.114 28.0067 103.114 28.1C103.114 28.22 103.034 28.34 102.874 28.46C102.714 28.58 102.487 28.6933 102.194 28.8C101.914 28.8933 101.58 28.9667 101.194 29.02C100.82 29.0867 100.414 29.12 99.9737 29.12ZM106.401 29.04C105.867 29.04 105.601 28.8933 105.601 28.6V14.4C105.601 14.1067 105.867 13.96 106.401 13.96H106.481C107.014 13.96 107.281 14.1067 107.281 14.4V23.34H107.361L111.181 18.78C111.274 18.6733 111.421 18.6 111.621 18.56C111.821 18.52 112.027 18.5 112.241 18.5H112.321C112.787 18.5 113.021 18.5867 113.021 18.76C113.021 18.88 112.954 19.0133 112.821 19.16L108.661 24.08V23.04L113.221 28.44C113.341 28.5733 113.401 28.68 113.401 28.76C113.401 28.9467 113.107 29.04 112.521 29.04H112.441C112.227 29.04 112.021 29.0267 111.821 29C111.621 28.9733 111.467 28.9 111.361 28.78L107.361 24.04H107.281V28.6C107.281 28.8933 107.014 29.04 106.481 29.04H106.401ZM126.255 29.12C124.255 29.12 122.728 28.5133 121.675 27.3C120.622 26.0733 120.095 24.2933 120.095 21.96C120.095 19.6133 120.622 17.8467 121.675 16.66C122.728 15.4733 124.255 14.88 126.255 14.88C128.268 14.88 129.802 15.4733 130.855 16.66C131.908 17.8467 132.435 19.6133 132.435 21.96C132.435 24.2933 131.908 26.0733 130.855 27.3C129.802 28.5133 128.268 29.12 126.255 29.12ZM126.255 27.6C127.668 27.6 128.748 27.12 129.495 26.16C130.242 25.2 130.615 23.8 130.615 21.96C130.615 20.12 130.242 18.7333 129.495 17.8C128.748 16.8667 127.668 16.4 126.255 16.4C124.842 16.4 123.762 16.8667 123.015 17.8C122.282 18.7333 121.915 20.12 121.915 21.96C121.915 23.8 122.282 25.2 123.015 26.16C123.762 27.12 124.842 27.6 126.255 27.6ZM138.084 29.04C137.884 29.04 137.711 29.02 137.564 28.98C137.417 28.9267 137.324 28.84 137.284 28.72L134.064 19.1C134.051 19.0733 134.037 19.0333 134.024 18.98C134.011 18.9267 134.004 18.88 134.004 18.84C134.004 18.6133 134.291 18.5 134.864 18.5H134.964C135.164 18.5 135.337 18.5267 135.484 18.58C135.631 18.62 135.724 18.7 135.764 18.82L137.804 25.2C137.924 25.6 138.044 26.0333 138.164 26.5C138.284 26.9533 138.384 27.3533 138.464 27.7H138.544C138.624 27.3533 138.724 26.94 138.844 26.46C138.964 25.9667 139.117 25.44 139.304 24.88L141.244 18.82C141.284 18.7 141.377 18.62 141.524 18.58C141.671 18.5267 141.851 18.5 142.064 18.5H142.124C142.617 18.5 142.864 18.6133 142.864 18.84C142.864 18.9067 142.844 19 142.804 19.12L139.584 28.72C139.544 28.84 139.451 28.9267 139.304 28.98C139.157 29.02 138.984 29.04 138.784 29.04H138.084ZM149.096 29.12C147.442 29.12 146.209 28.6867 145.396 27.82C144.596 26.9533 144.196 25.6267 144.196 23.84C144.196 22.6533 144.369 21.66 144.716 20.86C145.076 20.06 145.602 19.4533 146.296 19.04C146.989 18.6267 147.842 18.42 148.856 18.42C149.776 18.42 150.536 18.62 151.136 19.02C151.749 19.42 152.209 20.0067 152.516 20.78C152.822 21.5533 152.976 22.5067 152.976 23.64C152.976 23.72 152.936 23.8267 152.856 23.96C152.789 24.08 152.702 24.1933 152.596 24.3C152.489 24.4067 152.396 24.46 152.316 24.46H145.996C146.076 25.5667 146.362 26.38 146.856 26.9C147.349 27.42 148.089 27.68 149.076 27.68C149.662 27.68 150.156 27.6133 150.556 27.48C150.969 27.3333 151.296 27.1933 151.536 27.06C151.776 26.9133 151.929 26.84 151.996 26.84C152.089 26.84 152.189 26.9067 152.296 27.04C152.402 27.1733 152.496 27.32 152.576 27.48C152.656 27.64 152.696 27.76 152.696 27.84C152.696 27.96 152.602 28.0933 152.416 28.24C152.229 28.3867 151.969 28.5267 151.636 28.66C151.316 28.7933 150.936 28.9067 150.496 29C150.069 29.08 149.602 29.12 149.096 29.12ZM145.996 23.02H151.196C151.196 21.9667 150.996 21.18 150.596 20.66C150.196 20.1267 149.596 19.86 148.796 19.86C147.929 19.86 147.262 20.1267 146.796 20.66C146.329 21.18 146.062 21.9667 145.996 23.02ZM156.477 29.04C155.944 29.04 155.677 28.8933 155.677 28.6V21.58C155.677 21.0333 155.657 20.58 155.617 20.22C155.577 19.86 155.537 19.5867 155.497 19.4C155.457 19.2 155.437 19.0867 155.437 19.06C155.437 18.9667 155.477 18.8933 155.557 18.84C155.65 18.7733 155.757 18.7267 155.877 18.7C155.997 18.66 156.117 18.6333 156.237 18.62C156.357 18.6067 156.45 18.6 156.517 18.6C156.677 18.6 156.797 18.6733 156.877 18.82C156.97 18.9667 157.037 19.1467 157.077 19.36C157.13 19.56 157.177 19.7467 157.217 19.92C157.564 19.44 157.93 19.0733 158.317 18.82C158.717 18.5533 159.124 18.42 159.537 18.42C159.924 18.42 160.21 18.4867 160.397 18.62C160.597 18.74 160.697 18.9333 160.697 19.2C160.697 19.32 160.677 19.4667 160.637 19.64C160.61 19.8133 160.564 19.9667 160.497 20.1C160.444 20.22 160.377 20.28 160.297 20.28C160.164 20.28 160.03 20.2467 159.897 20.18C159.777 20.1 159.544 20.06 159.197 20.06C158.85 20.06 158.537 20.16 158.257 20.36C157.977 20.56 157.757 20.7667 157.597 20.98C157.437 21.18 157.357 21.28 157.357 21.28V28.6C157.357 28.8933 157.09 29.04 156.557 29.04H156.477ZM163.966 29.04C163.433 29.04 163.166 28.8933 163.166 28.6V19.98H162.366C162.099 19.98 161.966 19.78 161.966 19.38V19.14C161.966 18.74 162.099 18.54 162.366 18.54H163.166V16.64C163.166 16.04 163.253 15.56 163.426 15.2C163.599 14.84 163.819 14.5667 164.086 14.38C164.353 14.18 164.633 14.0467 164.926 13.98C165.219 13.9133 165.493 13.88 165.746 13.88C165.933 13.88 166.139 13.8933 166.366 13.92C166.593 13.9467 166.786 14 166.946 14.08C167.119 14.16 167.206 14.2933 167.206 14.48C167.206 14.5333 167.186 14.64 167.146 14.8C167.119 14.9467 167.073 15.0867 167.006 15.22C166.953 15.3533 166.879 15.42 166.786 15.42C166.693 15.42 166.599 15.4067 166.506 15.38C166.413 15.34 166.219 15.32 165.926 15.32C165.739 15.32 165.559 15.3533 165.386 15.42C165.226 15.4867 165.093 15.6267 164.986 15.84C164.893 16.04 164.846 16.36 164.846 16.8V18.54H166.586C166.853 18.54 166.986 18.74 166.986 19.14V19.38C166.986 19.78 166.853 19.98 166.586 19.98H164.846V28.6C164.846 28.8933 164.579 29.04 164.046 29.04H163.966ZM171.726 29.12C171.473 29.12 171.199 29.08 170.906 29C170.613 28.9333 170.333 28.8067 170.066 28.62C169.799 28.42 169.579 28.14 169.406 27.78C169.233 27.4067 169.146 26.9333 169.146 26.36V14.4C169.146 14.1067 169.413 13.96 169.946 13.96H170.026C170.559 13.96 170.826 14.1067 170.826 14.4V26.2C170.826 26.8 170.933 27.2 171.146 27.4C171.359 27.5867 171.613 27.68 171.906 27.68C172.199 27.68 172.393 27.6667 172.486 27.64C172.579 27.6 172.673 27.58 172.766 27.58C172.859 27.58 172.933 27.6467 172.986 27.78C173.053 27.9133 173.099 28.06 173.126 28.22C173.166 28.3667 173.186 28.4667 173.186 28.52C173.186 28.6933 173.099 28.8267 172.926 28.92C172.766 29 172.573 29.0533 172.346 29.08C172.119 29.1067 171.913 29.12 171.726 29.12ZM178.523 29.12C177.017 29.12 175.863 28.6667 175.063 27.76C174.277 26.8533 173.883 25.54 173.883 23.82C173.883 22.0867 174.283 20.7533 175.083 19.82C175.883 18.8867 177.03 18.42 178.523 18.42C179.99 18.42 181.11 18.8867 181.883 19.82C182.67 20.74 183.063 22.0733 183.063 23.82C183.063 25.5533 182.677 26.8733 181.903 27.78C181.143 28.6733 180.017 29.12 178.523 29.12ZM178.463 27.68C179.45 27.68 180.17 27.3667 180.623 26.74C181.09 26.1 181.323 25.1133 181.323 23.78C181.323 22.4467 181.09 21.46 180.623 20.82C180.17 20.18 179.45 19.86 178.463 19.86C177.49 19.86 176.777 20.18 176.323 20.82C175.87 21.4467 175.643 22.4333 175.643 23.78C175.643 25.1133 175.87 26.1 176.323 26.74C176.777 27.3667 177.49 27.68 178.463 27.68ZM188.135 29.04C187.935 29.04 187.755 29.02 187.595 28.98C187.448 28.9267 187.361 28.84 187.335 28.72L184.695 19.24C184.681 19.1733 184.661 19.1 184.635 19.02C184.608 18.94 184.595 18.88 184.595 18.84C184.595 18.7333 184.661 18.6533 184.795 18.6C184.941 18.5333 185.181 18.5 185.515 18.5C185.715 18.5 185.888 18.5267 186.035 18.58C186.195 18.62 186.288 18.7 186.315 18.82L187.995 25.22C188.061 25.4333 188.135 25.7733 188.215 26.24C188.295 26.7067 188.375 27.1333 188.455 27.52H188.535C188.601 27.1333 188.675 26.72 188.755 26.28C188.848 25.8267 188.928 25.4667 188.995 25.2L190.655 18.84C190.681 18.7067 190.768 18.62 190.915 18.58C191.061 18.5267 191.235 18.5 191.435 18.5H191.575C191.775 18.5 191.948 18.5267 192.095 18.58C192.241 18.62 192.328 18.7067 192.355 18.84L194.035 25.2C194.181 25.7333 194.281 26.1733 194.335 26.52C194.401 26.8667 194.461 27.2133 194.515 27.56H194.555C194.621 27.2 194.688 26.8 194.755 26.36C194.835 25.9067 194.915 25.5333 194.995 25.24L196.675 18.82C196.701 18.7 196.795 18.62 196.955 18.58C197.115 18.5267 197.295 18.5 197.495 18.5C198.028 18.5 198.295 18.6133 198.295 18.84C198.295 18.88 198.288 18.92 198.275 18.96C198.275 19 198.261 19.0533 198.235 19.12L195.555 28.72C195.528 28.84 195.435 28.9267 195.275 28.98C195.128 29.02 194.955 29.04 194.755 29.04H194.155C193.955 29.04 193.781 29.02 193.635 28.98C193.488 28.9267 193.401 28.84 193.375 28.72L191.775 22.38C191.735 22.2067 191.688 21.9733 191.635 21.68C191.595 21.3867 191.548 21.0933 191.495 20.8H191.455C191.401 21.0933 191.348 21.3867 191.295 21.68C191.255 21.96 191.215 22.1867 191.175 22.36L189.535 28.72C189.508 28.84 189.415 28.9267 189.255 28.98C189.108 29.02 188.935 29.04 188.735 29.04H188.135ZM205.281 15.84L205.461 17.6C207.621 17.14 212.721 16.64 214.861 16.42C213.041 17.5 211.141 20.06 211.141 23.16C211.141 27.64 215.341 29.6 219.041 29.74L219.621 28.1C216.381 27.98 212.721 26.72 212.721 22.82C212.721 20.46 214.461 17.4 217.321 16.48C218.341 16.2 220.081 16.16 221.241 16.18L221.221 14.58C219.881 14.62 218.021 14.74 215.821 14.92C212.141 15.24 208.361 15.6 207.081 15.74C206.681 15.78 206.041 15.82 205.281 15.84ZM218.341 18.62L217.341 19.06C217.941 19.9 218.501 20.92 218.961 21.88L220.001 21.42C219.561 20.52 218.801 19.28 218.341 18.62ZM220.521 17.78L219.541 18.24C220.161 19.08 220.761 20.08 221.241 21.04L222.261 20.54C221.801 19.66 221.021 18.44 220.521 17.78ZM232.081 12.26C230.841 12.62 228.561 12.96 226.641 13.16C226.801 13.42 226.961 13.86 227.021 14.12C229.041 13.98 231.461 13.66 233.101 13.18L232.081 12.26ZM240.681 12.28C239.321 12.66 236.881 12.98 234.841 13.16C234.981 13.44 235.141 13.84 235.201 14.12C237.361 14 239.941 13.7 241.681 13.22L240.681 12.28ZM226.241 12.74V14.74C226.241 16.02 226.021 17.62 224.581 18.94C224.901 19.12 225.381 19.58 225.601 19.9C227.241 18.36 227.601 16.26 227.601 14.8V13.48C227.861 13.44 227.961 13.36 227.981 13.22L226.241 12.74ZM234.441 12.8V14.58C234.441 15.72 234.141 17 232.501 18.06C232.821 18.26 233.261 18.74 233.441 19.06C235.361 17.76 235.781 15.96 235.781 14.64V13.48C236.041 13.44 236.141 13.36 236.161 13.22L234.441 12.8ZM226.861 15.1V16.28H233.621V15.1H226.861ZM235.041 15.1V16.28H242.661V15.1H235.041ZM229.921 15.54V18.78H231.281V15.54H229.921ZM238.321 15.54V18.84H239.681V15.54H238.321ZM228.741 22.58H238.861V23.98H228.741V22.58ZM228.741 24.94H238.861V26.38H228.741V24.94ZM228.741 20.2H238.861V21.6H228.741V20.2ZM227.281 19.2V27.4H240.361V19.2H227.281ZM235.381 28.42C237.561 29.14 239.741 30 241.001 30.66L242.661 29.9C241.221 29.22 238.801 28.34 236.601 27.66L235.381 28.42ZM230.681 27.62C229.241 28.4 226.841 29.1 224.781 29.54C225.121 29.8 225.641 30.38 225.881 30.68C227.881 30.12 230.421 29.2 232.041 28.24L230.681 27.62ZM250.541 21.92V23.18H255.981V26.52H250.541V27.78H257.381V21.92H250.541ZM249.881 21.92V28.98H251.281V21.92H249.881ZM246.261 15.96V17.08H251.821V15.96H246.261ZM255.481 15.96V17.08H261.141V15.96H255.481ZM260.481 13.06V28.58C260.481 28.96 260.361 29.08 259.981 29.08C259.601 29.1 258.281 29.12 256.961 29.06C257.181 29.48 257.441 30.18 257.501 30.6C259.261 30.6 260.421 30.58 261.101 30.34C261.741 30.08 261.981 29.6 261.981 28.6V13.06H260.481ZM246.381 13.06V14.28H251.361V18.9H246.381V20.12H252.781V13.06H246.381ZM261.261 13.06H254.581V20.12H261.261V18.92H256.021V14.26H261.261V13.06ZM245.541 13.06V30.62H247.021V13.06H245.541ZM276.261 13.16H274.421C274.461 13.34 274.521 13.9 274.561 14.44C274.621 15.54 274.641 19.52 274.641 20.4L276.161 21.18C276.141 19.58 276.101 15.72 276.161 14.42C276.161 14.18 276.221 13.4 276.261 13.16ZM265.621 15.96L265.661 17.5C268.681 17.28 272.961 17.14 276.401 17.14C279.341 17.14 281.141 17.18 282.261 17.24L282.281 15.76C281.341 15.74 278.861 15.74 276.421 15.74C273.341 15.74 268.341 15.92 265.621 15.96ZM276.121 21.76L275.021 21.2C275.341 23.34 274.541 24.38 273.301 24.38C272.201 24.38 271.261 23.66 271.261 22.4C271.261 21.1 272.241 20.28 273.301 20.28C274.381 20.28 275.261 21.04 275.261 22.84C275.261 26.14 273.141 27.92 269.501 28.78L270.841 30.08C275.481 28.7 276.801 25.7 276.801 22.98C276.801 20.68 275.621 18.96 273.301 18.96C271.401 18.96 269.761 20.44 269.761 22.42C269.761 24.6 271.381 25.78 273.061 25.78C274.881 25.78 276.121 24.44 276.121 21.76ZM288.481 14.28L288.521 15.92C288.961 15.86 289.401 15.84 289.861 15.8C290.901 15.74 294.901 15.58 295.961 15.52C294.961 16.42 292.441 18.52 291.321 19.44C290.181 20.42 287.601 22.58 285.941 23.94L287.101 25.1C289.621 22.52 291.421 21.12 294.741 21.12C297.361 21.12 299.241 22.58 299.241 24.56C299.241 27.06 297.101 28.46 293.701 28.46C292.121 28.46 291.021 27.88 291.021 26.9C291.021 26.2 291.721 25.64 292.641 25.64C294.241 25.64 295.221 26.86 295.341 28.56L296.781 28.32C296.641 26.3 295.301 24.42 292.641 24.42C290.801 24.42 289.561 25.66 289.561 27.02C289.561 28.7 291.221 29.88 293.941 29.88C298.181 29.88 300.841 27.78 300.841 24.56C300.841 21.86 298.461 19.88 295.141 19.88C294.241 19.88 293.281 19.98 292.361 20.28C293.921 19 296.641 16.66 297.621 15.9C298.001 15.6 298.401 15.34 298.761 15.1L297.841 13.92C297.621 14 297.341 14.04 296.741 14.1C295.681 14.2 290.941 14.34 289.881 14.34C289.481 14.34 288.921 14.32 288.481 14.28Z" fill="#4F660A"/>
</svg>
