<svg width="369" height="45" viewBox="0 0 369 45" fill="none" xmlns="http://www.w3.org/2000/svg">
<path d="M22.5 2C11.178 2 2 11.178 2 22.5C2 33.822 11.178 43 22.5 43H346.5C357.822 43 367 33.822 367 22.5C367 11.178 357.822 2 346.5 2H22.5ZM22.5 0H346.5C358.926 0 369 10.074 369 22.5C369 34.926 358.926 45 346.5 45H22.5C10.074 45 0 34.926 0 22.5C0 10.074 10.074 0 22.5 0Z" fill="#AECA63"/>
<path d="M77.617 15.3V16.76H95.137V15.3H77.617ZM83.817 21.64V23.04H94.357V21.64H83.817ZM83.037 28.72V30.14H95.137V28.72H83.037ZM88.337 17.78V29.48H89.837V17.78H88.337ZM84.197 12.2C83.077 16.32 80.737 20.76 77.137 23.3C77.377 23.64 77.757 24.28 77.917 24.68C81.897 21.82 84.337 17.16 85.737 12.58L84.197 12.2ZM80.237 20.44V30.54H81.737V20.44H80.237ZM106.062 29.12C105.208 29.12 104.448 29.02 103.782 28.82C103.115 28.62 102.622 28.4 102.302 28.16C102.048 27.9733 101.922 27.8067 101.922 27.66C101.922 27.5533 101.962 27.4133 102.042 27.24C102.135 27.0667 102.235 26.9133 102.342 26.78C102.462 26.6467 102.555 26.58 102.622 26.58C102.662 26.58 102.715 26.6 102.782 26.64C102.862 26.6667 102.948 26.7133 103.042 26.78C103.308 26.9267 103.695 27.1 104.202 27.3C104.708 27.5 105.328 27.6 106.062 27.6C106.568 27.6 107.015 27.5067 107.402 27.32C107.802 27.12 108.115 26.84 108.342 26.48C108.568 26.12 108.682 25.7067 108.682 25.24C108.682 24.7067 108.535 24.28 108.242 23.96C107.962 23.6267 107.588 23.3533 107.122 23.14C106.668 22.9267 106.182 22.72 105.662 22.52C105.235 22.36 104.815 22.1867 104.402 22C103.988 21.8 103.615 21.56 103.282 21.28C102.948 21 102.682 20.6467 102.482 20.22C102.282 19.78 102.182 19.2333 102.182 18.58C102.182 17.86 102.362 17.22 102.722 16.66C103.095 16.1 103.615 15.6667 104.282 15.36C104.948 15.04 105.728 14.88 106.622 14.88C106.902 14.88 107.215 14.9067 107.562 14.96C107.922 15.0133 108.268 15.0933 108.602 15.2C108.948 15.3067 109.228 15.4333 109.442 15.58C109.708 15.74 109.842 15.9133 109.842 16.1C109.842 16.1933 109.802 16.3267 109.722 16.5C109.642 16.6733 109.548 16.8267 109.442 16.96C109.348 17.0933 109.268 17.16 109.202 17.16C109.148 17.16 109.075 17.14 108.982 17.1C108.902 17.0467 108.795 16.9867 108.662 16.92C108.448 16.8133 108.175 16.7 107.842 16.58C107.508 16.46 107.088 16.4 106.582 16.4C106.088 16.4 105.642 16.4867 105.242 16.66C104.855 16.8333 104.548 17.0867 104.322 17.42C104.108 17.7533 104.002 18.1667 104.002 18.66C104.002 19.14 104.128 19.52 104.382 19.8C104.635 20.08 104.968 20.3133 105.382 20.5C105.795 20.6733 106.242 20.8533 106.722 21.04C107.162 21.2133 107.602 21.4067 108.042 21.62C108.495 21.82 108.908 22.0733 109.282 22.38C109.655 22.6867 109.948 23.0733 110.162 23.54C110.388 23.9933 110.502 24.56 110.502 25.24C110.502 25.84 110.395 26.38 110.182 26.86C109.982 27.34 109.682 27.7467 109.282 28.08C108.895 28.4133 108.428 28.6733 107.882 28.86C107.348 29.0333 106.742 29.12 106.062 29.12ZM115.902 29.12C115.648 29.12 115.375 29.08 115.082 29C114.788 28.9333 114.508 28.8067 114.242 28.62C113.975 28.42 113.755 28.14 113.582 27.78C113.408 27.4067 113.322 26.9333 113.322 26.36V19.98H112.322C112.055 19.98 111.922 19.78 111.922 19.38V19.14C111.922 18.74 112.055 18.54 112.322 18.54H113.322L113.562 16.44C113.588 16.1467 113.802 16 114.202 16H114.402C114.802 16 115.002 16.1467 115.002 16.44V18.54H116.682C116.948 18.54 117.082 18.74 117.082 19.14V19.38C117.082 19.78 116.948 19.98 116.682 19.98H115.002V26.2C115.002 26.8 115.108 27.2 115.322 27.4C115.535 27.5867 115.788 27.68 116.082 27.68C116.375 27.68 116.568 27.6667 116.662 27.64C116.755 27.6 116.848 27.58 116.942 27.58C117.035 27.58 117.108 27.6467 117.162 27.78C117.228 27.9133 117.275 28.06 117.302 28.22C117.342 28.3667 117.362 28.4667 117.362 28.52C117.362 28.6933 117.275 28.8267 117.102 28.92C116.942 29 116.748 29.0533 116.522 29.08C116.295 29.1067 116.088 29.12 115.902 29.12ZM122.418 29.12C121.444 29.12 120.631 28.88 119.978 28.4C119.324 27.9067 118.998 27.1467 118.998 26.12C118.998 25.28 119.198 24.62 119.598 24.14C119.998 23.6467 120.524 23.2867 121.178 23.06C121.831 22.82 122.544 22.6667 123.318 22.6C124.104 22.5333 124.878 22.4933 125.638 22.48V21.54C125.638 21.0867 125.478 20.6933 125.158 20.36C124.838 20.0267 124.264 19.86 123.438 19.86C122.838 19.86 122.311 19.9333 121.858 20.08C121.418 20.2133 121.064 20.3533 120.798 20.5C120.544 20.6333 120.384 20.7 120.318 20.7C120.224 20.7 120.124 20.6333 120.018 20.5C119.911 20.3667 119.818 20.22 119.738 20.06C119.658 19.8867 119.618 19.7667 119.618 19.7C119.618 19.5267 119.791 19.34 120.138 19.14C120.484 18.94 120.944 18.7733 121.518 18.64C122.091 18.4933 122.711 18.42 123.378 18.42C124.204 18.42 124.911 18.5467 125.498 18.8C126.084 19.04 126.531 19.3933 126.838 19.86C127.158 20.3267 127.318 20.8933 127.318 21.56V26.04C127.318 26.5867 127.338 27.04 127.378 27.4C127.418 27.76 127.458 28.0333 127.498 28.22C127.538 28.4067 127.558 28.52 127.558 28.56C127.558 28.6533 127.511 28.7333 127.418 28.8C127.338 28.8533 127.238 28.9 127.118 28.94C126.998 28.9667 126.878 28.9867 126.758 29C126.638 29.0133 126.544 29.02 126.478 29.02C126.318 29.02 126.191 28.9467 126.098 28.8C126.018 28.64 125.951 28.4533 125.898 28.24C125.858 28.0133 125.818 27.8067 125.778 27.62C125.524 27.9 125.231 28.1533 124.898 28.38C124.564 28.6067 124.191 28.7867 123.778 28.92C123.378 29.0533 122.924 29.12 122.418 29.12ZM122.498 27.66C123.231 27.66 123.838 27.52 124.318 27.24C124.798 26.96 125.238 26.64 125.638 26.28V23.92C125.118 23.92 124.578 23.94 124.018 23.98C123.458 24.0067 122.931 24.08 122.438 24.2C121.944 24.32 121.544 24.5267 121.238 24.82C120.944 25.1 120.798 25.5 120.798 26.02C120.798 26.5533 120.938 26.96 121.218 27.24C121.511 27.52 121.938 27.66 122.498 27.66ZM134.876 29.12C133.263 29.12 132.036 28.7067 131.196 27.88C130.369 27.04 129.956 25.6533 129.956 23.72C129.956 22.68 130.089 21.82 130.356 21.14C130.636 20.4467 131.003 19.9067 131.456 19.52C131.923 19.12 132.436 18.84 132.996 18.68C133.556 18.5067 134.123 18.42 134.696 18.42C135.216 18.42 135.703 18.4667 136.156 18.56C136.609 18.64 136.976 18.7533 137.256 18.9C137.549 19.0333 137.696 19.18 137.696 19.34C137.696 19.4467 137.656 19.5867 137.576 19.76C137.509 19.9333 137.429 20.0867 137.336 20.22C137.243 20.3533 137.149 20.42 137.056 20.42C137.043 20.42 137.016 20.4133 136.976 20.4C136.949 20.3867 136.903 20.3667 136.836 20.34C136.663 20.26 136.389 20.16 136.016 20.04C135.656 19.92 135.203 19.86 134.656 19.86C133.776 19.86 133.069 20.1533 132.536 20.74C132.016 21.3133 131.756 22.2933 131.756 23.68C131.756 25.08 131.989 26.1 132.456 26.74C132.923 27.3667 133.723 27.68 134.856 27.68C135.416 27.68 135.889 27.62 136.276 27.5C136.663 27.3667 136.943 27.2533 137.116 27.16C137.183 27.1333 137.229 27.1133 137.256 27.1C137.296 27.0867 137.323 27.08 137.336 27.08C137.429 27.08 137.529 27.1467 137.636 27.28C137.743 27.4133 137.829 27.56 137.896 27.72C137.976 27.88 138.016 28.0067 138.016 28.1C138.016 28.22 137.936 28.34 137.776 28.46C137.616 28.58 137.389 28.6933 137.096 28.8C136.816 28.8933 136.483 28.9667 136.096 29.02C135.723 29.0867 135.316 29.12 134.876 29.12ZM141.303 29.04C140.77 29.04 140.503 28.8933 140.503 28.6V14.4C140.503 14.1067 140.77 13.96 141.303 13.96H141.383C141.916 13.96 142.183 14.1067 142.183 14.4V23.34H142.263L146.083 18.78C146.176 18.6733 146.323 18.6 146.523 18.56C146.723 18.52 146.93 18.5 147.143 18.5H147.223C147.69 18.5 147.923 18.5867 147.923 18.76C147.923 18.88 147.856 19.0133 147.723 19.16L143.563 24.08V23.04L148.123 28.44C148.243 28.5733 148.303 28.68 148.303 28.76C148.303 28.9467 148.01 29.04 147.423 29.04H147.343C147.13 29.04 146.923 29.0267 146.723 29C146.523 28.9733 146.37 28.9 146.263 28.78L142.263 24.04H142.183V28.6C142.183 28.8933 141.916 29.04 141.383 29.04H141.303ZM161.157 29.12C159.157 29.12 157.631 28.5133 156.577 27.3C155.524 26.0733 154.997 24.2933 154.997 21.96C154.997 19.6133 155.524 17.8467 156.577 16.66C157.631 15.4733 159.157 14.88 161.157 14.88C163.171 14.88 164.704 15.4733 165.757 16.66C166.811 17.8467 167.337 19.6133 167.337 21.96C167.337 24.2933 166.811 26.0733 165.757 27.3C164.704 28.5133 163.171 29.12 161.157 29.12ZM161.157 27.6C162.571 27.6 163.651 27.12 164.397 26.16C165.144 25.2 165.517 23.8 165.517 21.96C165.517 20.12 165.144 18.7333 164.397 17.8C163.651 16.8667 162.571 16.4 161.157 16.4C159.744 16.4 158.664 16.8667 157.917 17.8C157.184 18.7333 156.817 20.12 156.817 21.96C156.817 23.8 157.184 25.2 157.917 26.16C158.664 27.12 159.744 27.6 161.157 27.6ZM172.986 29.04C172.786 29.04 172.613 29.02 172.466 28.98C172.32 28.9267 172.226 28.84 172.186 28.72L168.966 19.1C168.953 19.0733 168.94 19.0333 168.926 18.98C168.913 18.9267 168.906 18.88 168.906 18.84C168.906 18.6133 169.193 18.5 169.766 18.5H169.866C170.066 18.5 170.24 18.5267 170.386 18.58C170.533 18.62 170.626 18.7 170.666 18.82L172.706 25.2C172.826 25.6 172.946 26.0333 173.066 26.5C173.186 26.9533 173.286 27.3533 173.366 27.7H173.446C173.526 27.3533 173.626 26.94 173.746 26.46C173.866 25.9667 174.02 25.44 174.206 24.88L176.146 18.82C176.186 18.7 176.28 18.62 176.426 18.58C176.573 18.5267 176.753 18.5 176.966 18.5H177.026C177.52 18.5 177.766 18.6133 177.766 18.84C177.766 18.9067 177.746 19 177.706 19.12L174.486 28.72C174.446 28.84 174.353 28.9267 174.206 28.98C174.06 29.02 173.886 29.04 173.686 29.04H172.986ZM183.998 29.12C182.345 29.12 181.111 28.6867 180.298 27.82C179.498 26.9533 179.098 25.6267 179.098 23.84C179.098 22.6533 179.271 21.66 179.618 20.86C179.978 20.06 180.505 19.4533 181.198 19.04C181.891 18.6267 182.745 18.42 183.758 18.42C184.678 18.42 185.438 18.62 186.038 19.02C186.651 19.42 187.111 20.0067 187.418 20.78C187.725 21.5533 187.878 22.5067 187.878 23.64C187.878 23.72 187.838 23.8267 187.758 23.96C187.691 24.08 187.605 24.1933 187.498 24.3C187.391 24.4067 187.298 24.46 187.218 24.46H180.898C180.978 25.5667 181.265 26.38 181.758 26.9C182.251 27.42 182.991 27.68 183.978 27.68C184.565 27.68 185.058 27.6133 185.458 27.48C185.871 27.3333 186.198 27.1933 186.438 27.06C186.678 26.9133 186.831 26.84 186.898 26.84C186.991 26.84 187.091 26.9067 187.198 27.04C187.305 27.1733 187.398 27.32 187.478 27.48C187.558 27.64 187.598 27.76 187.598 27.84C187.598 27.96 187.505 28.0933 187.318 28.24C187.131 28.3867 186.871 28.5267 186.538 28.66C186.218 28.7933 185.838 28.9067 185.398 29C184.971 29.08 184.505 29.12 183.998 29.12ZM180.898 23.02H186.098C186.098 21.9667 185.898 21.18 185.498 20.66C185.098 20.1267 184.498 19.86 183.698 19.86C182.831 19.86 182.165 20.1267 181.698 20.66C181.231 21.18 180.965 21.9667 180.898 23.02ZM191.379 29.04C190.846 29.04 190.579 28.8933 190.579 28.6V21.58C190.579 21.0333 190.559 20.58 190.519 20.22C190.479 19.86 190.439 19.5867 190.399 19.4C190.359 19.2 190.339 19.0867 190.339 19.06C190.339 18.9667 190.379 18.8933 190.459 18.84C190.553 18.7733 190.659 18.7267 190.779 18.7C190.899 18.66 191.019 18.6333 191.139 18.62C191.259 18.6067 191.353 18.6 191.419 18.6C191.579 18.6 191.699 18.6733 191.779 18.82C191.873 18.9667 191.939 19.1467 191.979 19.36C192.033 19.56 192.079 19.7467 192.119 19.92C192.466 19.44 192.833 19.0733 193.219 18.82C193.619 18.5533 194.026 18.42 194.439 18.42C194.826 18.42 195.113 18.4867 195.299 18.62C195.499 18.74 195.599 18.9333 195.599 19.2C195.599 19.32 195.579 19.4667 195.539 19.64C195.513 19.8133 195.466 19.9667 195.399 20.1C195.346 20.22 195.279 20.28 195.199 20.28C195.066 20.28 194.933 20.2467 194.799 20.18C194.679 20.1 194.446 20.06 194.099 20.06C193.753 20.06 193.439 20.16 193.159 20.36C192.879 20.56 192.659 20.7667 192.499 20.98C192.339 21.18 192.259 21.28 192.259 21.28V28.6C192.259 28.8933 191.993 29.04 191.459 29.04H191.379ZM198.868 29.04C198.335 29.04 198.068 28.8933 198.068 28.6V19.98H197.268C197.002 19.98 196.868 19.78 196.868 19.38V19.14C196.868 18.74 197.002 18.54 197.268 18.54H198.068V16.64C198.068 16.04 198.155 15.56 198.328 15.2C198.502 14.84 198.722 14.5667 198.988 14.38C199.255 14.18 199.535 14.0467 199.828 13.98C200.122 13.9133 200.395 13.88 200.648 13.88C200.835 13.88 201.042 13.8933 201.268 13.92C201.495 13.9467 201.688 14 201.848 14.08C202.022 14.16 202.108 14.2933 202.108 14.48C202.108 14.5333 202.088 14.64 202.048 14.8C202.022 14.9467 201.975 15.0867 201.908 15.22C201.855 15.3533 201.782 15.42 201.688 15.42C201.595 15.42 201.502 15.4067 201.408 15.38C201.315 15.34 201.122 15.32 200.828 15.32C200.642 15.32 200.462 15.3533 200.288 15.42C200.128 15.4867 199.995 15.6267 199.888 15.84C199.795 16.04 199.748 16.36 199.748 16.8V18.54H201.488C201.755 18.54 201.888 18.74 201.888 19.14V19.38C201.888 19.78 201.755 19.98 201.488 19.98H199.748V28.6C199.748 28.8933 199.482 29.04 198.948 29.04H198.868ZM206.628 29.12C206.375 29.12 206.102 29.08 205.808 29C205.515 28.9333 205.235 28.8067 204.968 28.62C204.702 28.42 204.482 28.14 204.308 27.78C204.135 27.4067 204.048 26.9333 204.048 26.36V14.4C204.048 14.1067 204.315 13.96 204.848 13.96H204.928C205.462 13.96 205.728 14.1067 205.728 14.4V26.2C205.728 26.8 205.835 27.2 206.048 27.4C206.262 27.5867 206.515 27.68 206.808 27.68C207.102 27.68 207.295 27.6667 207.388 27.64C207.482 27.6 207.575 27.58 207.668 27.58C207.762 27.58 207.835 27.6467 207.888 27.78C207.955 27.9133 208.002 28.06 208.028 28.22C208.068 28.3667 208.088 28.4667 208.088 28.52C208.088 28.6933 208.002 28.8267 207.828 28.92C207.668 29 207.475 29.0533 207.248 29.08C207.022 29.1067 206.815 29.12 206.628 29.12ZM213.426 29.12C211.919 29.12 210.766 28.6667 209.966 27.76C209.179 26.8533 208.786 25.54 208.786 23.82C208.786 22.0867 209.186 20.7533 209.986 19.82C210.786 18.8867 211.932 18.42 213.426 18.42C214.892 18.42 216.012 18.8867 216.786 19.82C217.572 20.74 217.966 22.0733 217.966 23.82C217.966 25.5533 217.579 26.8733 216.806 27.78C216.046 28.6733 214.919 29.12 213.426 29.12ZM213.366 27.68C214.352 27.68 215.072 27.3667 215.526 26.74C215.992 26.1 216.226 25.1133 216.226 23.78C216.226 22.4467 215.992 21.46 215.526 20.82C215.072 20.18 214.352 19.86 213.366 19.86C212.392 19.86 211.679 20.18 211.226 20.82C210.772 21.4467 210.546 22.4333 210.546 23.78C210.546 25.1133 210.772 26.1 211.226 26.74C211.679 27.3667 212.392 27.68 213.366 27.68ZM223.037 29.04C222.837 29.04 222.657 29.02 222.497 28.98C222.35 28.9267 222.264 28.84 222.237 28.72L219.597 19.24C219.584 19.1733 219.564 19.1 219.537 19.02C219.51 18.94 219.497 18.88 219.497 18.84C219.497 18.7333 219.564 18.6533 219.697 18.6C219.844 18.5333 220.084 18.5 220.417 18.5C220.617 18.5 220.79 18.5267 220.937 18.58C221.097 18.62 221.19 18.7 221.217 18.82L222.897 25.22C222.964 25.4333 223.037 25.7733 223.117 26.24C223.197 26.7067 223.277 27.1333 223.357 27.52H223.437C223.504 27.1333 223.577 26.72 223.657 26.28C223.75 25.8267 223.83 25.4667 223.897 25.2L225.557 18.84C225.584 18.7067 225.67 18.62 225.817 18.58C225.964 18.5267 226.137 18.5 226.337 18.5H226.477C226.677 18.5 226.85 18.5267 226.997 18.58C227.144 18.62 227.23 18.7067 227.257 18.84L228.937 25.2C229.084 25.7333 229.184 26.1733 229.237 26.52C229.304 26.8667 229.364 27.2133 229.417 27.56H229.457C229.524 27.2 229.59 26.8 229.657 26.36C229.737 25.9067 229.817 25.5333 229.897 25.24L231.577 18.82C231.604 18.7 231.697 18.62 231.857 18.58C232.017 18.5267 232.197 18.5 232.397 18.5C232.93 18.5 233.197 18.6133 233.197 18.84C233.197 18.88 233.19 18.92 233.177 18.96C233.177 19 233.164 19.0533 233.137 19.12L230.457 28.72C230.43 28.84 230.337 28.9267 230.177 28.98C230.03 29.02 229.857 29.04 229.657 29.04H229.057C228.857 29.04 228.684 29.02 228.537 28.98C228.39 28.9267 228.304 28.84 228.277 28.72L226.677 22.38C226.637 22.2067 226.59 21.9733 226.537 21.68C226.497 21.3867 226.45 21.0933 226.397 20.8H226.357C226.304 21.0933 226.25 21.3867 226.197 21.68C226.157 21.96 226.117 22.1867 226.077 22.36L224.437 28.72C224.41 28.84 224.317 28.9267 224.157 28.98C224.01 29.02 223.837 29.04 223.637 29.04H223.037ZM248.023 18.68V20.18H256.243V18.68H248.023ZM239.643 28.16V29.66H257.603V28.16H239.643ZM247.163 12.5V28.96H248.743V12.5H247.163ZM268.183 16.66H274.863V18.26H268.183V16.66ZM268.183 14H274.863V15.6H268.183V14ZM266.803 12.86V19.42H276.303V12.86H266.803ZM265.883 20.86V22.12H277.403V20.86H265.883ZM270.803 21.48V29.08L272.203 29.66V21.48H270.803ZM268.123 25.16L267.203 25.5C268.423 29.58 270.723 30.3 274.063 30.3H277.583C277.623 29.92 277.823 29.28 278.023 28.96C277.323 28.98 274.623 28.98 274.123 28.98C271.343 28.98 269.143 28.48 268.123 25.16ZM271.763 24.46V25.7H276.403V24.46H271.763ZM267.203 23.06C266.883 26.02 265.983 28.28 264.203 29.7C264.503 29.92 265.083 30.36 265.323 30.6C267.123 29 268.163 26.52 268.563 23.22L267.203 23.06ZM259.183 22.84L259.563 24.3C261.263 23.76 263.443 23.04 265.523 22.36L265.303 20.98C263.063 21.7 260.743 22.42 259.183 22.84ZM259.403 16.24V17.64H265.503V16.24H259.403ZM261.883 12.22V28.72C261.883 29.02 261.803 29.1 261.543 29.1C261.303 29.1 260.543 29.1 259.663 29.08C259.863 29.5 260.043 30.12 260.103 30.48C261.363 30.48 262.143 30.44 262.603 30.2C263.103 29.96 263.283 29.56 263.283 28.74V12.22H261.883ZM280.463 16.72V30.62H281.943V16.72H280.463ZM280.683 13.18C281.703 14.24 283.003 15.68 283.663 16.54L284.803 15.72C284.143 14.88 282.783 13.46 281.783 12.48L280.683 13.18ZM285.723 13.34V14.74H296.283V13.34H285.723ZM295.263 13.34V28.5C295.263 28.84 295.143 28.96 294.783 28.98C294.463 28.98 293.243 29 292.043 28.94C292.243 29.36 292.483 30.04 292.543 30.46C294.183 30.48 295.263 30.44 295.903 30.2C296.523 29.94 296.763 29.48 296.763 28.52V13.34H295.263ZM285.803 18.28V19.64H290.623V24.28H285.803V25.64H292.083V18.28H285.803ZM285.043 18.28V26.94H286.423V18.28H285.043Z" fill="#4F660A"/>
</svg>
