<?xml version="1.0" encoding="UTF-8"?>
<svg width="268px" height="45px" viewBox="0 0 268 45" version="1.1" xmlns="http://www.w3.org/2000/svg" xmlns:xlink="http://www.w3.org/1999/xlink">
    <!-- Generator: Sketch 52.6 (67491) - http://www.bohemiancoding.com/sketch -->
    <title>Artboard</title>
    <desc>Created with Sketch.</desc>
    <defs>
        <path d="M71.58,16 C75.02,16 77.76,17.82 77.76,23 C77.76,28.2 75.02,30 71.58,30 L67.54,30 C67.12,30 66.94,29.82 66.94,29.4 L66.94,16.6 C66.94,16.18 67.12,16 67.54,16 L71.58,16 Z M71.44,17.52 L68.7,17.52 L68.7,28.48 L71.44,28.48 C73.94,28.48 75.94,27 75.94,23 C75.94,19.02 73.94,17.52 71.44,17.52 Z M84.64,19.42 C87.58,19.42 89.18,21.34 89.18,24.82 C89.18,28.28 87.62,30.12 84.64,30.12 C81.62,30.12 80,28.26 80,24.82 C80,21.36 81.66,19.42 84.64,19.42 Z M84.58,20.86 C82.64,20.86 81.76,22.1 81.76,24.78 C81.76,27.44 82.62,28.68 84.58,28.68 C86.54,28.68 87.44,27.44 87.44,24.78 C87.44,22.12 86.54,20.86 84.58,20.86 Z M103.78,19.5 C104.32,19.5 104.58,19.62 104.58,19.84 C104.58,19.92 104.56,20 104.52,20.12 L101.84,29.72 C101.78,29.96 101.44,30.04 101.04,30.04 L100.44,30.04 C100.04,30.04 99.72,29.96 99.66,29.72 L98.06,23.38 C97.94,22.92 97.84,22.34 97.76,21.82 C97.68,22.34 97.58,22.92 97.46,23.36 L95.82,29.72 C95.76,29.96 95.42,30.04 95.02,30.04 L94.42,30.04 C94.02,30.04 93.68,29.96 93.62,29.72 L90.98,20.24 C90.94,20.12 90.88,19.92 90.88,19.84 C90.88,19.64 91.14,19.5 91.8,19.5 C92.2,19.5 92.54,19.58 92.6,19.82 L94.28,26.22 C94.4,26.7 94.62,27.76 94.78,28.5 C94.9,27.8 95.1,26.84 95.28,26.2 L96.94,19.84 C97,19.58 97.32,19.5 97.72,19.5 L97.86,19.5 C98.26,19.5 98.56,19.58 98.64,19.84 L100.32,26.2 C100.62,27.34 100.68,27.76 100.82,28.48 C100.96,27.76 101.12,26.86 101.28,26.24 L102.96,19.82 C103.02,19.58 103.38,19.5 103.78,19.5 Z M111.6,19.42 C113.64,19.42 114.86,20.64 114.86,22.66 L114.86,29.6 C114.86,29.88 114.62,30.04 114.06,30.04 L113.98,30.04 C113.42,30.04 113.18,29.88 113.18,29.6 L113.18,22.82 C113.18,21.6 112.44,20.88 111.14,20.88 C110.24,20.88 109.28,21.42 108.62,22.28 L108.62,29.6 C108.62,29.88 108.38,30.04 107.82,30.04 L107.74,30.04 C107.18,30.04 106.94,29.88 106.94,29.6 L106.94,22.58 C106.94,20.94 106.7,20.16 106.7,20.06 C106.7,19.68 107.52,19.6 107.78,19.6 C108.26,19.6 108.36,20.4 108.48,20.92 C109.32,19.98 110.48,19.42 111.6,19.42 Z M118.88,14.96 C119.44,14.96 119.68,15.12 119.68,15.4 L119.68,27.2 C119.68,28.4 120.18,28.68 120.76,28.68 C121.34,28.68 121.44,28.58 121.62,28.58 C121.9,28.58 122.04,29.36 122.04,29.52 C122.04,30.06 121.12,30.12 120.58,30.12 C119.58,30.12 118,29.68 118,27.36 L118,15.4 C118,15.12 118.24,14.96 118.8,14.96 L118.88,14.96 Z M128.04,19.42 C130.98,19.42 132.58,21.34 132.58,24.82 C132.58,28.28 131.02,30.12 128.04,30.12 C125.02,30.12 123.4,28.26 123.4,24.82 C123.4,21.36 125.06,19.42 128.04,19.42 Z M127.98,20.86 C126.04,20.86 125.16,22.1 125.16,24.78 C125.16,27.44 126.02,28.68 127.98,28.68 C129.94,28.68 130.84,27.44 130.84,24.78 C130.84,22.12 129.94,20.86 127.98,20.86 Z M139.04,19.42 C141.52,19.42 142.98,20.58 142.98,22.56 L142.98,27.04 C142.98,28.68 143.22,29.46 143.22,29.56 C143.22,29.94 142.4,30.02 142.14,30.02 C141.66,30.02 141.56,29.18 141.44,28.62 C140.68,29.46 139.58,30.12 138.08,30.12 C136.14,30.12 134.66,29.18 134.66,27.12 C134.66,23.74 138.24,23.52 141.3,23.48 L141.3,22.54 C141.3,21.64 140.76,20.86 139.1,20.86 C137.28,20.86 136.18,21.7 135.98,21.7 C135.7,21.7 135.28,20.92 135.28,20.7 C135.28,20.18 137.04,19.42 139.04,19.42 Z M141.3,24.92 C139.22,24.94 136.46,24.94 136.46,27.02 C136.46,28.08 137.04,28.66 138.16,28.66 C139.62,28.66 140.5,28 141.3,27.28 L141.3,24.92 Z M153.42,14.96 C153.98,14.96 154.22,15.12 154.22,15.4 L154.22,27.04 C154.22,28.68 154.46,29.46 154.46,29.56 C154.46,29.94 153.64,30.02 153.38,30.02 C152.9,30.02 152.8,29.18 152.68,28.62 C151.7,29.64 150.64,30.12 149.5,30.12 C147.1,30.12 145.62,27.88 145.62,24.78 C145.62,21.3 147.3,19.42 149.68,19.42 C150.92,19.42 151.76,19.84 152.54,20.44 L152.54,15.4 C152.54,15.12 152.78,14.96 153.34,14.96 L153.42,14.96 Z M150.08,20.9 C148.28,20.94 147.38,22.24 147.38,24.62 C147.38,27.2 148.26,28.66 149.84,28.66 C150.72,28.66 151.72,28.18 152.54,27.28 L152.54,21.8 C151.82,21.2 150.98,20.9 150.08,20.9 Z M167.98,15.88 C172,15.88 174.16,18.28 174.16,22.96 C174.16,27.64 172,30.12 167.98,30.12 C163.98,30.12 161.82,27.64 161.82,22.96 C161.82,18.28 163.98,15.88 167.98,15.88 Z M167.98,17.4 C165.16,17.4 163.64,19.28 163.64,22.96 C163.64,26.64 165.16,28.6 167.98,28.6 C170.8,28.6 172.34,26.64 172.34,22.96 C172.34,19.28 170.8,17.4 167.98,17.4 Z M181.74,19.42 C184.22,19.42 185.62,21.7 185.62,24.78 C185.62,28.24 183.94,30.12 181.56,30.12 C180.32,30.12 179.48,29.7 178.7,29.1 L178.7,33.72 C178.7,34 178.46,34.16 177.9,34.16 L177.82,34.16 C177.26,34.16 177.02,34 177.02,33.72 L177.02,22.58 C177.02,20.94 176.78,20.16 176.78,20.06 C176.78,19.68 177.6,19.6 177.86,19.6 C178.34,19.6 178.44,20.4 178.56,20.92 C179.54,19.9 180.6,19.42 181.74,19.42 Z M181.4,20.88 C180.52,20.88 179.52,21.36 178.7,22.26 L178.7,27.74 C179.42,28.34 180.26,28.64 181.18,28.64 C182.96,28.6 183.86,27.3 183.86,24.92 C183.86,22.34 182.98,20.88 181.4,20.88 Z M192.52,19.42 C195.26,19.42 196.64,21.24 196.64,24.64 C196.64,24.88 196.22,25.46 195.98,25.46 L189.66,25.46 C189.82,27.68 190.76,28.68 192.74,28.68 C194.48,28.68 195.46,27.84 195.66,27.84 C195.94,27.84 196.36,28.62 196.36,28.84 C196.36,29.32 194.78,30.12 192.76,30.12 C189.44,30.12 187.86,28.42 187.86,24.84 C187.86,21.3 189.46,19.42 192.52,19.42 Z M192.46,20.86 C190.72,20.86 189.8,21.92 189.66,24.02 L194.86,24.02 C194.86,21.92 194.06,20.86 192.46,20.86 Z M203.92,19.42 C205.96,19.42 207.18,20.64 207.18,22.66 L207.18,29.6 C207.18,29.88 206.94,30.04 206.38,30.04 L206.3,30.04 C205.74,30.04 205.5,29.88 205.5,29.6 L205.5,22.82 C205.5,21.6 204.76,20.88 203.46,20.88 C202.56,20.88 201.6,21.42 200.94,22.28 L200.94,29.6 C200.94,29.88 200.7,30.04 200.14,30.04 L200.06,30.04 C199.5,30.04 199.26,29.88 199.26,29.6 L199.26,22.58 C199.26,20.94 199.02,20.16 199.02,20.06 C199.02,19.68 199.84,19.6 200.1,19.6 C200.58,19.6 200.68,20.4 200.8,20.92 C201.64,19.98 202.8,19.42 203.92,19.42 Z M214.26,15.96 C214.82,15.96 215.06,16.12 215.06,16.4 L215.06,25.9 C215.06,28.42 213.9,30.12 210.82,30.12 C210.06,30.12 208.8,30.02 208.8,29.48 C208.8,29.4 208.92,28.38 209.24,28.38 C209.4,28.38 209.86,28.56 210.5,28.56 C212.48,28.56 213.3,27.82 213.3,26.1 L213.3,16.4 C213.3,16.12 213.54,15.96 214.1,15.96 L214.26,15.96 Z M222.14,15.9 C224.98,15.9 226.4,17.76 226.4,20.94 C226.4,26.72 221.24,30.04 219.9,30.04 C219.48,30.04 219.24,29.22 219.24,28.98 C219.24,28.92 219.26,28.82 219.4,28.76 C222.12,27.64 223.7,25.68 224.34,23.44 C223.72,23.8 222.86,24.1 221.64,24.1 C219.52,24.1 217.82,22.52 217.82,20.06 C217.82,17.52 219.72,15.9 222.14,15.9 Z M222.04,17.34 C220.96,17.34 219.52,18.14 219.52,19.98 C219.52,21.94 220.82,22.66 222.14,22.66 C223.2,22.66 224.08,22.3 224.64,21.98 C224.68,21.58 224.72,21.16 224.72,20.78 C224.72,17.98 223.3,17.34 222.04,17.34 Z" id="path-1"></path>
    </defs>
    <g id="Artboard" stroke="none" stroke-width="1" fill="none" fill-rule="evenodd">
        <g id="Download_OpenJ9">
            <g id="blog_btn_download-ol">
                <g id="a-link" fill="#ABD155">
                    <path d="M19.1105769,0 L245.889423,0 C256.443558,0 265,10.074 265,22.5 C265,34.926 256.443558,45 245.889423,45 L19.1105769,45 C8.55644231,45 0,34.926 0,22.5 C0,10.074 8.55644231,0 19.1105769,0 Z" id="a"></path>
                </g>
                <path d="M19.5097087,1.5 C9.56320388,1.5 1.5,10.902 1.5,22.5 C1.5,34.098 9.56320388,43.5 19.5097087,43.5 L248.490291,43.5 C258.436796,43.5 266.5,34.098 266.5,22.5 C266.5,10.902 258.436796,1.5 248.490291,1.5 L19.5097087,1.5 Z" id="Path" stroke="#ABD155" stroke-width="3"></path>
                <path d="M48.94,18.94 L43.94,23.94 C43.3892823,24.5310195 43.4055322,25.4520194 43.9767564,26.0232436 C44.5479806,26.5944678 45.4689805,26.6107177 46.06,26.06 L51.06,21.06 C51.6107177,20.4689805 51.5944678,19.5479806 51.0232436,18.9767564 C50.4520194,18.4055322 49.5310195,18.3892823 48.94,18.94 Z" id="Path" fill="#4F660A"></path>
                <path d="M43.5,11 L43.5,23 C43.5,23.8284271 44.1715729,24.5 45,24.5 C45.8284271,24.5 46.5,23.8284271 46.5,23 L46.5,11 C46.5,10.1715729 45.8284271,9.5 45,9.5 C44.1715729,9.5 43.5,10.1715729 43.5,11 Z" id="Path" fill="#4F660A"></path>
                <path d="M38.94,21.06 L43.94,26.06 C44.5310195,26.6107177 45.4520194,26.5944678 46.0232436,26.0232436 C46.5944678,25.4520194 46.6107177,24.5310195 46.06,23.94 L41.06,18.94 C40.4689805,18.3892823 39.5479806,18.4055322 38.9767564,18.9767564 C38.4055322,19.5479806 38.3892823,20.4689805 38.94,21.06 Z M39,35.5 L51,35.5 C51.8284271,35.5 52.5,34.8284271 52.5,34 C52.5,33.1715729 51.8284271,32.5 51,32.5 L39,32.5 C38.1715729,32.5 37.5,33.1715729 37.5,34 C37.5,34.8284271 38.1715729,35.5 39,35.5 Z" id="Shape" fill="#4F660A" fill-rule="nonzero"></path>
            </g>
            <g id="Download-OpenJ9-Text">
                <use fill="#000000" xlink:href="#path-1"></use>
                <use fill="#24253A" xlink:href="#path-1"></use>
            </g>
        </g>
    </g>
</svg>